<?xml version="1.0" standalone="no"?>
<!DOCTYPE svg PUBLIC "-//W3C//DTD SVG 20010904//EN"
 "http://www.w3.org/TR/2001/REC-SVG-20010904/DTD/svg10.dtd">
<svg version="1.0" xmlns="http://www.w3.org/2000/svg"
 width="1000.000000pt" height="1000.000000pt" viewBox="0 0 1000.000000 1000.000000"
 preserveAspectRatio="xMidYMid meet">
<metadata>
Created by potrace 1.11, written by Peter Selinger 2001-2013
</metadata>
<g transform="translate(0.000000,1000.000000) scale(0.100000,-0.100000)"
fill="#000000" stroke="none">
<path d="M8278 8359 l-1646 -389 -637 315 -636 314 -1125 -368 c-619 -203
-1127 -371 -1130 -374 -11 -10 -582 -1991 -577 -2000 2 -4 418 -381 924 -837
l919 -830 962 -40 c529 -22 963 -41 964 -43 1 -1 -121 -211 -271 -467 -167
-284 -278 -464 -286 -462 -7 2 -572 271 -1256 598 -683 326 -1247 595 -1254
596 -12 3 -3100 -3195 -3089 -3200 3 -1 671 250 1483 558 l1477 560 720 -455
720 -455 1353 222 c748 122 1362 228 1373 235 12 8 315 434 673 948 l651 935
-371 972 c-205 535 -375 976 -379 981 -3 4 -620 79 -1369 167 -750 87 -1365
160 -1367 162 -3 4 113 659 118 663 2 2 315 -125 696 -281 l692 -284 1643
1306 c1510 1201 1691 1346 1677 1343 -3 -1 -746 -176 -1652 -390z"/>
</g>
</svg>
