<?xml version="1.0" encoding="iso-8859-1"?>
<!-- Generator: Adobe Illustrator 19.0.0, SVG Export Plug-In . SVG Version: 6.00 Build 0)  -->
<svg version="1.1" id="Capa_1" xmlns="http://www.w3.org/2000/svg" xmlns:xlink="http://www.w3.org/1999/xlink" x="0px" y="0px"
	 viewBox="0 0 480 480" style="enable-background:new 0 0 480 480;" xml:space="preserve">
<path style="fill:#2BB0AF;" d="M43.096,166.28l-18.288,18.288l22.624,22.624l18.288-18.288c6.76,4.256,14.256,7.424,22.28,9.248V224
	h32v-25.848c8.024-1.824,15.52-4.992,22.28-9.248l18.288,18.288l22.624-22.624l-18.288-18.288c4.256-6.76,7.424-14.256,9.248-22.28
	H200v-32h-25.848c-1.824-8.024-4.992-15.52-9.248-22.28l18.288-18.288L160.568,48.8L142.28,67.088
	c-6.76-4.248-14.256-7.416-22.28-9.24V32H88v25.848c-8.024,1.824-15.52,4.992-22.28,9.248L47.432,48.8L24.808,71.424l18.288,18.288
	C38.84,96.48,35.672,103.976,33.848,112H8v32h25.848C35.672,152.024,38.84,159.52,43.096,166.28z M104,96c17.672,0,32,14.328,32,32
	s-14.328,32-32,32s-32-14.328-32-32S86.328,96,104,96z"/>
<path style="fill:#EFC95B;" d="M424.36,260.896l25.752-25.752l-39.6-39.6l-24.368,24.368c-10.36-6.856-21.864-12.072-34.144-15.472
	V168h-56v34.408c-12.28,2.496-23.856,6.904-34.464,12.84L232.152,190l-36.496,42.472l24.472,21.024
	c-6.968,10.448-12.256,22.08-15.68,34.496H168v56h34.408c2.544,12.536,7.112,24.32,13.232,35.104l-25.752,25.752l39.6,39.6
	l24.368-24.368c10.36,6.864,21.864,12.072,34.144,15.472V472h56v-34.408c12.536-2.544,24.32-7.112,35.104-13.232l25.752,25.752
	l39.6-39.6l-24.368-24.368c6.856-10.36,12.072-21.864,15.472-34.144H472v-56h-34.408C435.048,283.464,430.48,271.68,424.36,260.896z
	 M320,392c-39.768,0-72-32.232-72-72s32.232-72,72-72s72,32.232,72,72S359.768,392,320,392z"/>
<path style="fill:#D6705A;" d="M308.288,92.288C315.52,85.048,320,75.048,320,64s-4.48-21.048-11.712-28.288
	C301.048,28.48,291.048,24,280,24s-21.048,4.48-28.288,11.712C244.48,42.952,240,52.952,240,64s4.48,21.048,11.712,28.288
	C258.952,99.52,268.952,104,280,104S301.048,99.52,308.288,92.288z"/>
<g>
	<path style="fill:#383838;" d="M8,152h19.728c1.408,4.464,3.2,8.792,5.384,12.952l-13.96,13.968c-3.128,3.128-3.128,8.184,0,11.312
		l22.624,22.624c3.128,3.128,8.184,3.128,11.312,0l13.96-13.96c4.16,2.176,8.496,3.976,12.952,5.376V224c0,4.416,3.576,8,8,8h32
		c4.424,0,8-3.584,8-8v-19.728c4.464-1.408,8.8-3.2,12.952-5.376l13.96,13.96c3.128,3.128,8.184,3.128,11.312,0l22.624-22.624
		c3.128-3.128,3.128-8.184,0-11.312l-13.96-13.968c2.176-4.16,3.976-8.488,5.384-12.952H200c4.424,0,8-3.584,8-8v-32
		c0-4.416-3.576-8-8-8h-19.728c-1.408-4.464-3.2-8.792-5.384-12.952l13.96-13.968c3.128-3.128,3.128-8.184,0-11.312l-22.624-22.624
		c-3.128-3.128-8.184-3.128-11.312,0l-13.96,13.96c-4.152-2.176-8.488-3.968-12.952-5.376V32c0-4.416-3.576-8-8-8H88
		c-4.424,0-8,3.584-8,8v19.728c-4.464,1.408-8.8,3.2-12.952,5.376l-13.96-13.952c-3.128-3.128-8.184-3.128-11.312,0L19.152,65.776
		c-3.128,3.128-3.128,8.184,0,11.312l13.96,13.968c-2.184,4.152-3.976,8.48-5.384,12.944H8c-4.424,0-8,3.584-8,8v32
		C0,148.416,3.576,152,8,152z M16,120h17.84c3.736,0,6.968-2.584,7.8-6.224c1.6-7.008,4.368-13.672,8.216-19.792
		c1.992-3.16,1.528-7.28-1.112-9.92l-12.632-12.64l11.312-11.312l12.632,12.632c2.648,2.648,6.768,3.104,9.92,1.112
		C76.104,70,82.76,67.232,89.768,65.64C93.416,64.816,96,61.576,96,57.84V40h16v17.84c0,3.736,2.584,6.976,6.224,7.8
		c7.008,1.592,13.664,4.36,19.792,8.216c3.16,1.992,7.272,1.528,9.92-1.112l12.632-12.632l11.312,11.312l-12.632,12.64
		c-2.64,2.64-3.104,6.76-1.112,9.92c3.848,6.12,6.616,12.776,8.216,19.792c0.832,3.64,4.072,6.224,7.808,6.224H192v16h-17.84
		c-3.736,0-6.968,2.584-7.8,6.224c-1.6,7.008-4.368,13.672-8.216,19.792c-1.992,3.16-1.528,7.28,1.112,9.92l12.632,12.64
		l-11.312,11.312l-12.632-12.632c-2.648-2.64-6.768-3.104-9.92-1.112c-6.128,3.856-12.784,6.624-19.792,8.216
		c-3.648,0.824-6.232,4.064-6.232,7.8V216H96v-17.84c0-3.736-2.584-6.976-6.224-7.8c-7.008-1.592-13.664-4.36-19.792-8.216
		c-3.16-1.992-7.272-1.528-9.92,1.112l-12.632,12.632L36.12,184.576l12.632-12.64c2.64-2.64,3.104-6.76,1.112-9.92
		c-3.848-6.12-6.616-12.776-8.216-19.792c-0.832-3.64-4.072-6.224-7.808-6.224H16V120z"/>
	<path style="fill:#383838;" d="M104,168c22.056,0,40-17.944,40-40s-17.944-40-40-40s-40,17.944-40,40S81.944,168,104,168z M104,104
		c13.232,0,24,10.768,24,24s-10.768,24-24,24s-24-10.768-24-24S90.768,104,104,104z"/>
	<path style="fill:#383838;" d="M320,240c-44.112,0-80,35.888-80,80s35.888,80,80,80s80-35.888,80-80S364.112,240,320,240z M320,384
		c-35.288,0-64-28.712-64-64s28.712-64,64-64s64,28.712,64,64S355.288,384,320,384z"/>
	<path style="fill:#383838;" d="M472,288h-28.048c-2.28-8.816-5.536-17.4-9.736-25.656L455.76,240.8
		c1.504-1.504,2.344-3.536,2.344-5.656s-0.84-4.16-2.344-5.656l-39.6-39.6c-3.128-3.128-8.184-3.128-11.312,0l-19.864,19.864
		c-7.84-4.616-16.2-8.384-24.984-11.256V168c0-4.416-3.576-8-8-8h-56c-4.424,0-8,3.584-8,8v28.048
		c-8.728,2.256-17.224,5.464-25.392,9.576l-25.24-21.688c-1.608-1.384-3.784-2.048-5.816-1.912c-2.12,0.16-4.088,1.152-5.472,2.76
		l-36.496,42.48c-2.872,3.352-2.496,8.4,0.856,11.28l19.248,16.544c-4.584,7.808-8.336,16.144-11.2,24.912H168c-4.424,0-8,3.584-8,8
		v56c0,4.416,3.576,8,8,8h28.048c2.28,8.816,5.536,17.4,9.736,25.656L184.24,399.2c-1.504,1.504-2.344,3.536-2.344,5.656
		s0.84,4.16,2.344,5.656l39.6,39.6c3.128,3.128,8.184,3.128,11.312,0l19.864-19.864c7.832,4.608,16.2,8.376,24.984,11.256V472
		c0,4.416,3.576,8,8,8h56c4.424,0,8-3.584,8-8v-28.048c8.808-2.28,17.392-5.536,25.648-9.736l21.544,21.544
		c3.128,3.128,8.184,3.128,11.312,0l39.6-39.6c3.128-3.128,3.128-8.184,0-11.312l-19.864-19.872
		c4.608-7.832,8.376-16.192,11.248-24.984H472c4.424,0,8-3.584,8-8v-56C480,291.584,476.424,288,472,288z M464,344h-28.448
		c-3.592,0-6.752,2.4-7.712,5.864c-3.176,11.488-8.032,22.2-14.432,31.856c-2.104,3.168-1.672,7.384,1.016,10.072l18.712,18.712
		l-28.288,28.288l-20.096-20.096c-2.536-2.544-6.464-3.088-9.608-1.304c-10.376,5.888-21.392,10.048-32.744,12.344
		c-3.72,0.768-6.4,4.048-6.4,7.856V464h-40v-28.448c0-3.6-2.4-6.752-5.864-7.712c-11.48-3.176-22.192-8.024-31.848-14.424
		c-3.168-2.096-7.392-1.688-10.08,1.008l-18.712,18.712l-28.288-28.288l20.096-20.088c2.544-2.544,3.08-6.48,1.296-9.608
		c-5.88-10.368-10.04-21.384-12.344-32.752c-0.76-3.72-4.048-6.4-7.848-6.4H176v-40h28.448c3.592,0,6.752-2.4,7.712-5.864
		c3.208-11.632,8.136-22.464,14.632-32.184c2.24-3.36,1.624-7.872-1.448-10.504l-18.4-15.816l26.064-30.336l23.32,20.032
		c2.544,2.192,6.192,2.56,9.12,0.912c10.168-5.68,20.976-9.712,32.152-11.984c3.72-0.76,6.4-4.04,6.4-7.848V176h40v28.448
		c0,3.6,2.4,6.752,5.864,7.712c11.472,3.168,22.184,8.024,31.848,14.424c3.168,2.096,7.384,1.68,10.08-1.008l18.712-18.712
		l28.288,28.288l-20.096,20.088c-2.544,2.544-3.08,6.48-1.296,9.608c5.88,10.368,10.04,21.384,12.352,32.752
		c0.752,3.72,4.04,6.4,7.84,6.4H464V344z"/>
	<path style="fill:#383838;" d="M216,56v16h16.72c1.232,7.272,4.08,13.992,8.2,19.768L229.088,103.6l11.312,11.312l11.832-11.832
		c5.776,4.12,12.496,6.968,19.768,8.2V128h16v-16.72c7.272-1.232,13.992-4.08,19.768-8.192L319.6,114.92l11.312-11.312
		L319.08,91.776c4.12-5.784,6.968-12.504,8.2-19.776H344V56h-16.72c-1.232-7.272-4.08-13.992-8.2-19.768L330.912,24.4L319.6,13.088
		L307.768,24.92c-5.776-4.12-12.496-6.968-19.768-8.2V0h-16v16.72c-7.272,1.232-13.992,4.08-19.768,8.192L240.4,13.088L229.088,24.4
		l11.832,11.832c-4.12,5.776-6.968,12.496-8.2,19.768H216z M280,32c17.648,0,32,14.352,32,32s-14.352,32-32,32s-32-14.352-32-32
		S262.352,32,280,32z"/>
	<rect x="272" y="56" style="fill:#383838;" width="16" height="16"/>
</g>
</svg>
